<svg width="238" height="44" viewBox="0 0 238 44" fill="none" xmlns="http://www.w3.org/2000/svg">
<g clip-path="url(#clip0_18_3874)">
<path d="M16.0359 30.5619L23.8947 29.2484L29.2227 15.9824L51.9999 43.6966L26.5587 0.614746L16.0359 30.5619Z" fill="#BC2023"/>
<path d="M31.7162 37.2868L26.64 31.2265L12.3223 33.2939L25.3107 0L0.146484 43.2395L31.7162 37.2868Z" fill="#BC2023"/>
<path d="M29.6131 19.958L26.8079 27.3148L35.7509 38.5331L0 43.9893L50.5574 43.9998L29.6131 19.958Z" fill="#BC2023"/>
</g>
<path d="M219.826 17.8357H223.46V19.7351C224.423 18.3312 225.882 17.5054 227.919 17.5054C232.048 17.5054 234.278 20.726 234.278 24.9927C234.278 29.2594 232.048 32.48 227.919 32.48C225.965 32.48 224.534 31.7093 223.57 30.4155V37.6551H219.826V17.8357ZM223.543 24.9927C223.543 27.6353 224.616 29.397 227.011 29.397C229.406 29.397 230.479 27.6353 230.479 24.9927C230.479 22.3501 229.406 20.5884 227.011 20.5884C224.616 20.5884 223.543 22.3501 223.543 24.9927Z" fill="black"/>
<path d="M207.468 26.3142C207.468 27.9659 208.156 29.2321 210.083 29.2321C211.404 29.2321 213.221 28.3788 213.221 25.6811V17.8359H216.965V32.15H213.331V30.1955C212.34 31.5168 210.854 32.4803 208.817 32.4803C205.596 32.4803 203.724 30.3332 203.724 26.7547V17.8359H207.468V26.3142Z" fill="black"/>
<path d="M194.15 32.48C189.471 32.48 186.828 29.2594 186.828 24.9927C186.828 20.726 189.471 17.5054 194.15 17.5054C198.83 17.5054 201.472 20.726 201.472 24.9927C201.472 29.2594 198.83 32.48 194.15 32.48ZM190.627 24.9927C190.627 27.6353 191.7 29.397 194.15 29.397C196.6 29.397 197.674 27.6353 197.674 24.9927C197.674 22.3501 196.6 20.5884 194.15 20.5884C191.7 20.5884 190.627 22.3501 190.627 24.9927Z" fill="black"/>
<path d="M176.251 32.1496V17.8356H179.885V20.4506C180.82 18.4412 182.307 17.6704 184.151 17.6704H185.307V21.1113H183.986C181.564 21.1113 179.995 22.1298 179.995 25.4055V32.1496H176.251Z" fill="black"/>
<path d="M163.392 32.4801C157.473 32.4801 154.032 27.828 154.032 22.24C154.032 16.6521 157.473 12 163.942 12C169.172 12 172.503 15.028 173.191 19.1295H169.09C168.512 17.0374 166.722 15.5235 163.942 15.5235C159.923 15.5235 158.217 18.634 158.217 22.24C158.217 25.8461 159.923 28.9291 163.942 28.9291C166.888 28.9291 168.622 27.2775 169.31 24.6073H163.116V21.3592H173.439V32.1497H170.466V28.7089C169.2 31.0487 166.97 32.4801 163.392 32.4801Z" fill="black"/>
<path d="M137.3 32.1496V17.8356H140.933V20.4506C141.869 18.4412 143.355 17.6704 145.2 17.6704H146.356V21.1113H145.035C142.612 21.1113 141.043 22.1298 141.043 25.4055V32.1496H137.3Z" fill="black"/>
<path d="M131.247 32.1497V30.5531C130.009 31.9845 128.522 32.48 126.705 32.48C123.622 32.48 121.475 30.9385 121.475 28.1308C121.475 25.5708 123.237 24.3596 127.063 23.6989L131.137 22.9832V22.24C131.137 21.0563 130.477 20.3406 128.66 20.3406C127.118 20.3406 125.935 21.0013 125.88 22.4327H122.164C122.219 19.0469 125.081 17.5054 128.632 17.5054C132.789 17.5054 134.798 19.157 134.798 21.7996V32.1497H131.247ZM125.302 27.9931C125.302 29.0667 126.072 29.7824 127.641 29.7824C129.403 29.7824 131.137 28.874 131.137 26.6168V25.4056L127.779 26.0938C126.182 26.3966 125.302 26.782 125.302 27.9931Z" fill="black"/>
<path d="M106.573 32.15V12.3306H110.317V23.6166L115.905 17.836H120.337L114.914 23.3138L120.695 32.15H116.318L112.354 25.9014L110.317 27.9659V32.15H106.573Z" fill="black"/>
<path d="M99.9774 23.6714C99.9774 22.0198 99.2892 20.7536 97.6376 20.7536C96.3163 20.7536 94.7748 21.6069 94.7748 24.3045V32.1497H91.0312V23.6714C91.0312 22.0198 90.3155 20.7536 88.6914 20.7536C87.3701 20.7536 85.801 21.6069 85.801 24.3045V32.1497H82.0574V17.8357H85.6909V19.8727C86.5718 18.5239 87.9206 17.5054 89.9576 17.5054C91.912 17.5054 93.3985 18.4688 94.1692 20.148C95.1602 18.6615 96.7568 17.5054 98.9039 17.5054C101.849 17.5054 103.721 19.6525 103.721 23.231V32.1497H99.9774V23.6714Z" fill="black"/>
<path d="M69.9097 32.4801C63.4409 32.4801 60 27.828 60 22.24C60 16.6521 63.4409 12 69.9097 12C76.3785 12 79.7919 16.6521 79.7919 22.24C79.7919 27.828 76.3785 32.4801 69.9097 32.4801ZM64.1841 22.24C64.1841 25.8461 65.8908 28.9015 69.9097 28.9015C73.9286 28.9015 75.6078 25.8461 75.6078 22.24C75.6078 18.634 73.9286 15.5785 69.9097 15.5785C65.8908 15.5785 64.1841 18.634 64.1841 22.24Z" fill="black"/>
<defs>
<clipPath id="clip0_18_3874">
<rect width="52" height="44" fill="white"/>
</clipPath>
</defs>
</svg>
