<svg width="61" height="60" viewBox="0 0 61 60" fill="none" xmlns="http://www.w3.org/2000/svg">
<path d="M18.52 7.3125C18.3989 7.33974 18.2844 7.39078 18.1831 7.46265C18.0732 7.48891 17.969 7.53482 17.8755 7.59815C17.8718 7.59934 17.8682 7.60056 17.8645 7.6018C17.803 7.7017 17.7607 7.81226 17.74 7.92773C17.675 8.02571 17.6291 8.13503 17.6045 8.25V8.27197V45.75C17.6045 45.9986 17.7033 46.2371 17.8791 46.4129C18.0549 46.5887 18.2934 46.6875 18.542 46.6875H57.917C58.1042 46.6875 58.2871 46.6315 58.4422 46.5266C58.5972 46.4217 58.7173 46.2729 58.7871 46.0991C58.8568 45.9254 58.8729 45.7348 58.8334 45.5518C58.7938 45.3689 58.7004 45.2019 58.5652 45.0725L19.2048 7.58716L19.1902 7.57251C19.1841 7.57 19.178 7.56756 19.1719 7.56519C19.0008 7.40525 18.7761 7.31511 18.542 7.3125C18.5383 7.3137 18.5347 7.31492 18.531 7.31616C18.5274 7.31492 18.5237 7.3137 18.52 7.3125ZM19.4795 10.4363L55.5732 44.8125H19.4795V10.4363Z" fill="white"/>
<path d="M26.042 24.1875C25.7934 24.1875 25.5549 24.2863 25.3792 24.4622C25.2033 24.6379 25.1045 24.8764 25.1045 25.125V38.25C25.1045 38.4986 25.2033 38.7371 25.3791 38.9129C25.5549 39.0887 25.7934 39.1875 26.042 39.1875H39.167C39.3524 39.1874 39.5336 39.1324 39.6877 39.0294C39.8418 38.9264 39.9619 38.78 40.0329 38.6087C40.1038 38.4374 40.1224 38.249 40.0862 38.0671C40.0501 37.8853 39.9609 37.7183 39.8298 37.5872L26.7048 24.4622C26.6808 24.4514 26.6564 24.4416 26.6316 24.4329C26.4698 24.2846 26.2612 24.1978 26.042 24.1875ZM26.9795 27.3882L36.9038 37.3125H26.9795V27.3882Z" fill="white"/>
<path d="M18.542 27.9375C18.4189 27.9375 18.297 27.9617 18.1832 28.0089C18.0695 28.056 17.9661 28.125 17.8791 28.2121C17.792 28.2991 17.723 28.4025 17.6759 28.5162C17.6287 28.63 17.6045 28.7519 17.6045 28.875C17.6045 28.9981 17.6287 29.12 17.6759 29.2338C17.723 29.3475 17.792 29.4509 17.8791 29.5379C17.9661 29.625 18.0695 29.694 18.1832 29.7411C18.297 29.7883 18.4189 29.8125 18.542 29.8125H20.417C20.5401 29.8125 20.662 29.7883 20.7758 29.7411C20.8895 29.694 20.9929 29.625 21.0799 29.5379C21.167 29.4509 21.236 29.3475 21.2831 29.2338C21.3302 29.12 21.3545 28.9981 21.3545 28.875C21.3545 28.7519 21.3302 28.63 21.2831 28.5162C21.236 28.4025 21.167 28.2991 21.0799 28.2121C20.9929 28.125 20.8895 28.056 20.7758 28.0089C20.662 27.9617 20.5401 27.9375 20.417 27.9375H18.542Z" fill="white"/>
<path d="M18.542 31.6875C18.4189 31.6875 18.297 31.7117 18.1832 31.7589C18.0695 31.806 17.9661 31.875 17.8791 31.9621C17.792 32.0491 17.723 32.1525 17.6759 32.2662C17.6287 32.38 17.6045 32.5019 17.6045 32.625C17.6045 32.7481 17.6287 32.87 17.6759 32.9838C17.723 33.0975 17.792 33.2009 17.8791 33.2879C17.9661 33.375 18.0695 33.444 18.1832 33.4911C18.297 33.5383 18.4189 33.5625 18.542 33.5625H20.417C20.5401 33.5625 20.662 33.5383 20.7758 33.4911C20.8895 33.444 20.9929 33.375 21.0799 33.2879C21.167 33.2009 21.236 33.0975 21.2831 32.9838C21.3302 32.87 21.3545 32.7481 21.3545 32.625C21.3545 32.5019 21.3302 32.38 21.2831 32.2662C21.236 32.1525 21.167 32.0491 21.0799 31.9621C20.9929 31.875 20.8895 31.806 20.7758 31.7589C20.662 31.7117 20.5401 31.6875 20.417 31.6875H18.542Z" fill="white"/>
<path d="M18.542 35.4375C18.4189 35.4375 18.297 35.4617 18.1832 35.5089C18.0695 35.556 17.9661 35.625 17.8791 35.7121C17.792 35.7991 17.723 35.9025 17.6759 36.0162C17.6287 36.13 17.6045 36.2519 17.6045 36.375C17.6045 36.4981 17.6287 36.62 17.6759 36.7338C17.723 36.8475 17.792 36.9509 17.8791 37.0379C17.9661 37.125 18.0695 37.194 18.1832 37.2411C18.297 37.2883 18.4189 37.3125 18.542 37.3125H20.417C20.5401 37.3125 20.662 37.2883 20.7758 37.2411C20.8895 37.194 20.9929 37.125 21.0799 37.0379C21.167 36.9509 21.236 36.8475 21.2831 36.7338C21.3302 36.62 21.3545 36.4981 21.3545 36.375C21.3545 36.2519 21.3302 36.13 21.2831 36.0162C21.236 35.9025 21.167 35.7991 21.0799 35.7121C20.9929 35.625 20.8895 35.556 20.7758 35.5089C20.662 35.4617 20.5401 35.4375 20.417 35.4375H18.542Z" fill="white"/>
<path d="M27.917 42.9375C27.7939 42.9375 27.672 42.9617 27.5582 43.0089C27.4445 43.056 27.3411 43.125 27.2541 43.2121C27.167 43.2991 27.098 43.4025 27.0509 43.5162C27.0037 43.63 26.9795 43.7519 26.9795 43.875V45.75C26.9795 45.8731 27.0037 45.995 27.0509 46.1088C27.098 46.2225 27.167 46.3259 27.2541 46.4129C27.3411 46.5 27.4445 46.569 27.5582 46.6161C27.672 46.6633 27.7939 46.6875 27.917 46.6875C28.0401 46.6875 28.162 46.6633 28.2758 46.6161C28.3895 46.569 28.4929 46.5 28.5799 46.4129C28.667 46.3259 28.736 46.2225 28.7831 46.1088C28.8302 45.995 28.8545 45.8731 28.8545 45.75V43.875C28.8545 43.7519 28.8302 43.63 28.7831 43.5162C28.736 43.4025 28.667 43.2991 28.5799 43.2121C28.4929 43.125 28.3895 43.056 28.2758 43.0089C28.162 42.9617 28.0401 42.9375 27.917 42.9375Z" fill="white"/>
<path d="M24.167 42.9375C24.0439 42.9375 23.922 42.9617 23.8082 43.0089C23.6945 43.056 23.5911 43.125 23.5041 43.2121C23.417 43.2991 23.348 43.4025 23.3009 43.5162C23.2537 43.63 23.2295 43.7519 23.2295 43.875V45.75C23.2295 45.8731 23.2537 45.995 23.3009 46.1088C23.348 46.2225 23.417 46.3259 23.5041 46.4129C23.5911 46.5 23.6945 46.569 23.8082 46.6161C23.922 46.6633 24.0439 46.6875 24.167 46.6875C24.2901 46.6875 24.412 46.6633 24.5258 46.6161C24.6395 46.569 24.7429 46.5 24.8299 46.4129C24.917 46.3259 24.986 46.2225 25.0331 46.1088C25.0802 45.995 25.1045 45.8731 25.1045 45.75V43.875C25.1045 43.7519 25.0802 43.63 25.0331 43.5162C24.986 43.4025 24.917 43.2991 24.8299 43.2121C24.7429 43.125 24.6395 43.056 24.5258 43.0089C24.412 42.9617 24.2901 42.9375 24.167 42.9375Z" fill="white"/>
<path d="M31.667 42.9375C31.5439 42.9375 31.422 42.9617 31.3082 43.0089C31.1945 43.056 31.0911 43.125 31.0041 43.2121C30.917 43.2991 30.848 43.4025 30.8009 43.5162C30.7537 43.63 30.7295 43.7519 30.7295 43.875V45.75C30.7295 45.8731 30.7537 45.995 30.8009 46.1088C30.848 46.2225 30.917 46.3259 31.0041 46.4129C31.0911 46.5 31.1945 46.569 31.3082 46.6161C31.422 46.6633 31.5439 46.6875 31.667 46.6875C31.7901 46.6875 31.912 46.6633 32.0258 46.6161C32.1395 46.569 32.2429 46.5 32.3299 46.4129C32.417 46.3259 32.486 46.2225 32.5331 46.1088C32.5802 45.995 32.6045 45.8731 32.6045 45.75V43.875C32.6045 43.7519 32.5802 43.63 32.5331 43.5162C32.486 43.4025 32.417 43.2991 32.3299 43.2121C32.2429 43.125 32.1395 43.056 32.0258 43.0089C31.912 42.9617 31.7901 42.9375 31.667 42.9375Z" fill="white"/>
<path d="M35.417 42.9375C35.2939 42.9375 35.172 42.9617 35.0582 43.0089C34.9445 43.056 34.8411 43.125 34.7541 43.2121C34.667 43.2991 34.598 43.4025 34.5509 43.5162C34.5037 43.63 34.4795 43.7519 34.4795 43.875V45.75C34.4795 45.8731 34.5037 45.995 34.5509 46.1088C34.598 46.2225 34.667 46.3259 34.7541 46.4129C34.8411 46.5 34.9445 46.569 35.0582 46.6161C35.172 46.6633 35.2939 46.6875 35.417 46.6875C35.5401 46.6875 35.662 46.6633 35.7758 46.6161C35.8895 46.569 35.9929 46.5 36.0799 46.4129C36.167 46.3259 36.236 46.2225 36.2831 46.1088C36.3302 45.995 36.3545 45.8731 36.3545 45.75V43.875C36.3545 43.7519 36.3302 43.63 36.2831 43.5162C36.236 43.4025 36.167 43.2991 36.0799 43.2121C35.9929 43.125 35.8895 43.056 35.7758 43.0089C35.662 42.9617 35.5401 42.9375 35.417 42.9375Z" fill="white"/>
<path d="M39.167 42.9375C39.0439 42.9375 38.922 42.9617 38.8082 43.0089C38.6945 43.056 38.5911 43.125 38.5041 43.2121C38.417 43.2991 38.348 43.4025 38.3009 43.5162C38.2537 43.63 38.2295 43.7519 38.2295 43.875V45.75C38.2295 45.8731 38.2537 45.995 38.3009 46.1088C38.348 46.2225 38.417 46.3259 38.5041 46.4129C38.5911 46.5 38.6945 46.569 38.8082 46.6161C38.922 46.6633 39.0439 46.6875 39.167 46.6875C39.2901 46.6875 39.412 46.6633 39.5258 46.6161C39.6395 46.569 39.7429 46.5 39.8299 46.4129C39.917 46.3259 39.986 46.2225 40.0331 46.1088C40.0802 45.995 40.1045 45.8731 40.1045 45.75V43.875C40.1045 43.7519 40.0802 43.63 40.0331 43.5162C39.986 43.4025 39.917 43.2991 39.8299 43.2121C39.7429 43.125 39.6395 43.056 39.5258 43.0089C39.412 42.9617 39.2901 42.9375 39.167 42.9375Z" fill="white"/>
<path d="M18.542 24.1875C18.4189 24.1875 18.297 24.2117 18.1832 24.2589C18.0695 24.306 17.9661 24.375 17.8791 24.4621C17.792 24.5491 17.723 24.6525 17.6759 24.7662C17.6287 24.88 17.6045 25.0019 17.6045 25.125C17.6045 25.2481 17.6287 25.37 17.6759 25.4838C17.723 25.5975 17.792 25.7009 17.8791 25.7879C17.9661 25.875 18.0695 25.944 18.1832 25.9911C18.297 26.0383 18.4189 26.0625 18.542 26.0625H20.417C20.5401 26.0625 20.662 26.0383 20.7758 25.9911C20.8895 25.944 20.9929 25.875 21.0799 25.7879C21.167 25.7009 21.236 25.5975 21.2831 25.4838C21.3302 25.37 21.3545 25.2481 21.3545 25.125C21.3545 25.0019 21.3302 24.88 21.2831 24.7662C21.236 24.6525 21.167 24.5491 21.0799 24.4621C20.9929 24.375 20.8895 24.306 20.7758 24.2589C20.662 24.2117 20.5401 24.1875 20.417 24.1875H18.542Z" fill="white"/>
<path d="M18.542 39.1875C18.4189 39.1875 18.297 39.2117 18.1832 39.2589C18.0695 39.306 17.9661 39.375 17.8791 39.4621C17.792 39.5491 17.723 39.6525 17.6759 39.7662C17.6287 39.88 17.6045 40.0019 17.6045 40.125C17.6045 40.2481 17.6287 40.37 17.6759 40.4838C17.723 40.5975 17.792 40.7009 17.8791 40.7879C17.9661 40.875 18.0695 40.944 18.1832 40.9911C18.297 41.0383 18.4189 41.0625 18.542 41.0625H20.417C20.5401 41.0625 20.662 41.0383 20.7758 40.9911C20.8895 40.944 20.9929 40.875 21.0799 40.7879C21.167 40.7009 21.236 40.5975 21.2831 40.4838C21.3302 40.37 21.3545 40.2481 21.3545 40.125C21.3545 40.0019 21.3302 39.88 21.2831 39.7662C21.236 39.6525 21.167 39.5491 21.0799 39.4621C20.9929 39.375 20.8895 39.306 20.7758 39.2589C20.662 39.2117 20.5401 39.1875 20.417 39.1875H18.542Z" fill="white"/>
<path d="M5.41699 7.3125C5.16836 7.31252 4.92992 7.4113 4.75411 7.58711C4.5783 7.76292 4.47952 8.00137 4.47949 8.25V45.75C4.47952 45.9986 4.5783 46.2371 4.75411 46.4129C4.92992 46.5887 5.16836 46.6875 5.41699 46.6875H12.917C13.1656 46.6875 13.4041 46.5887 13.5799 46.4129C13.7557 46.2371 13.8545 45.9986 13.8545 45.75V8.25C13.8545 8.12689 13.8302 8.00498 13.7831 7.89123C13.736 7.77749 13.667 7.67414 13.5799 7.58709C13.4929 7.50003 13.3895 7.43098 13.2758 7.38386C13.162 7.33675 13.0401 7.3125 12.917 7.3125H5.41699ZM6.35449 9.1875H11.9795V44.8125H6.35449V9.1875Z" fill="white"/>
<path d="M5.41699 16.6875C5.29388 16.6875 5.17197 16.7117 5.05823 16.7589C4.94448 16.806 4.84113 16.875 4.75408 16.9621C4.66702 17.0491 4.59797 17.1525 4.55085 17.2662C4.50374 17.38 4.47949 17.5019 4.47949 17.625C4.47949 17.7481 4.50374 17.87 4.55085 17.9838C4.59797 18.0975 4.66702 18.2009 4.75408 18.2879C4.84113 18.375 4.94448 18.444 5.05823 18.4911C5.17197 18.5383 5.29388 18.5625 5.41699 18.5625H7.29199C7.41511 18.5625 7.53702 18.5383 7.65076 18.4911C7.7645 18.444 7.86785 18.375 7.95491 18.2879C8.04196 18.2009 8.11102 18.0975 8.15813 17.9838C8.20524 17.87 8.22949 17.7481 8.22949 17.625C8.22949 17.5019 8.20524 17.38 8.15813 17.2662C8.11102 17.1525 8.04196 17.0491 7.95491 16.9621C7.86785 16.875 7.7645 16.806 7.65076 16.7589C7.53702 16.7117 7.41511 16.6875 7.29199 16.6875H5.41699Z" fill="white"/>
<path d="M5.41699 20.4375C5.29388 20.4375 5.17197 20.4617 5.05823 20.5089C4.94448 20.556 4.84113 20.625 4.75408 20.7121C4.66702 20.7991 4.59797 20.9025 4.55085 21.0162C4.50374 21.13 4.47949 21.2519 4.47949 21.375C4.47949 21.4981 4.50374 21.62 4.55085 21.7338C4.59797 21.8475 4.66702 21.9509 4.75408 22.0379C4.84113 22.125 4.94448 22.194 5.05823 22.2411C5.17197 22.2883 5.29388 22.3125 5.41699 22.3125H9.16699C9.29011 22.3125 9.41202 22.2883 9.52576 22.2411C9.6395 22.194 9.74285 22.125 9.82991 22.0379C9.91696 21.9509 9.98602 21.8475 10.0331 21.7338C10.0802 21.62 10.1045 21.4981 10.1045 21.375C10.1045 21.2519 10.0802 21.13 10.0331 21.0162C9.98602 20.9025 9.91696 20.7991 9.82991 20.7121C9.74285 20.625 9.6395 20.556 9.52576 20.5089C9.41202 20.4617 9.29011 20.4375 9.16699 20.4375H5.41699Z" fill="white"/>
<path d="M5.41699 24.1875C5.29388 24.1875 5.17197 24.2117 5.05823 24.2589C4.94448 24.306 4.84113 24.375 4.75408 24.4621C4.66702 24.5491 4.59797 24.6525 4.55085 24.7662C4.50374 24.88 4.47949 25.0019 4.47949 25.125C4.47949 25.2481 4.50374 25.37 4.55085 25.4838C4.59797 25.5975 4.66702 25.7009 4.75408 25.7879C4.84113 25.875 4.94448 25.944 5.05823 25.9911C5.17197 26.0383 5.29388 26.0625 5.41699 26.0625H7.29199C7.41511 26.0625 7.53702 26.0383 7.65076 25.9911C7.7645 25.944 7.86785 25.875 7.95491 25.7879C8.04196 25.7009 8.11102 25.5975 8.15813 25.4838C8.20524 25.37 8.22949 25.2481 8.22949 25.125C8.22949 25.0019 8.20524 24.88 8.15813 24.7662C8.11102 24.6525 8.04196 24.5491 7.95491 24.4621C7.86785 24.375 7.7645 24.306 7.65076 24.2589C7.53702 24.2117 7.41511 24.1875 7.29199 24.1875H5.41699Z" fill="white"/>
<path d="M5.41699 27.9375C5.29388 27.9375 5.17197 27.9617 5.05823 28.0089C4.94448 28.056 4.84113 28.125 4.75408 28.2121C4.66702 28.2991 4.59797 28.4025 4.55085 28.5162C4.50374 28.63 4.47949 28.7519 4.47949 28.875C4.47949 28.9981 4.50374 29.12 4.55085 29.2338C4.59797 29.3475 4.66702 29.4509 4.75408 29.5379C4.84113 29.625 4.94448 29.694 5.05823 29.7411C5.17197 29.7883 5.29388 29.8125 5.41699 29.8125H7.29199C7.41511 29.8125 7.53702 29.7883 7.65076 29.7411C7.7645 29.694 7.86785 29.625 7.95491 29.5379C8.04196 29.4509 8.11102 29.3475 8.15813 29.2338C8.20524 29.12 8.22949 28.9981 8.22949 28.875C8.22949 28.7519 8.20524 28.63 8.15813 28.5162C8.11102 28.4025 8.04196 28.2991 7.95491 28.2121C7.86785 28.125 7.7645 28.056 7.65076 28.0089C7.53702 27.9617 7.41511 27.9375 7.29199 27.9375H5.41699Z" fill="white"/>
<path d="M5.41699 31.6875C5.29388 31.6875 5.17197 31.7117 5.05823 31.7589C4.94448 31.806 4.84113 31.875 4.75408 31.9621C4.66702 32.0491 4.59797 32.1525 4.55085 32.2662C4.50374 32.38 4.47949 32.5019 4.47949 32.625C4.47949 32.7481 4.50374 32.87 4.55085 32.9838C4.59797 33.0975 4.66702 33.2009 4.75408 33.2879C4.84113 33.375 4.94448 33.444 5.05823 33.4911C5.17197 33.5383 5.29388 33.5625 5.41699 33.5625H9.16699C9.29011 33.5625 9.41202 33.5383 9.52576 33.4911C9.6395 33.444 9.74285 33.375 9.82991 33.2879C9.91696 33.2009 9.98602 33.0975 10.0331 32.9838C10.0802 32.87 10.1045 32.7481 10.1045 32.625C10.1045 32.5019 10.0802 32.38 10.0331 32.2662C9.98602 32.1525 9.91696 32.0491 9.82991 31.9621C9.74285 31.875 9.6395 31.806 9.52576 31.7589C9.41202 31.7117 9.29011 31.6875 9.16699 31.6875H5.41699Z" fill="white"/>
<path d="M5.41699 35.4375C5.29388 35.4375 5.17197 35.4617 5.05823 35.5089C4.94448 35.556 4.84113 35.625 4.75408 35.7121C4.66702 35.7991 4.59797 35.9025 4.55085 36.0162C4.50374 36.13 4.47949 36.2519 4.47949 36.375C4.47949 36.4981 4.50374 36.62 4.55085 36.7338C4.59797 36.8475 4.66702 36.9509 4.75408 37.0379C4.84113 37.125 4.94448 37.194 5.05823 37.2411C5.17197 37.2883 5.29388 37.3125 5.41699 37.3125H7.29199C7.41511 37.3125 7.53702 37.2883 7.65076 37.2411C7.7645 37.194 7.86785 37.125 7.95491 37.0379C8.04196 36.9509 8.11102 36.8475 8.15813 36.7338C8.20524 36.62 8.22949 36.4981 8.22949 36.375C8.22949 36.2519 8.20524 36.13 8.15813 36.0162C8.11102 35.9025 8.04196 35.7991 7.95491 35.7121C7.86785 35.625 7.7645 35.556 7.65076 35.5089C7.53702 35.4617 7.41511 35.4375 7.29199 35.4375H5.41699Z" fill="white"/>
<path d="M5.41699 39.1875C5.29388 39.1875 5.17197 39.2117 5.05823 39.2589C4.94448 39.306 4.84113 39.375 4.75408 39.4621C4.66702 39.5491 4.59797 39.6525 4.55085 39.7662C4.50374 39.88 4.47949 40.0019 4.47949 40.125C4.47949 40.2481 4.50374 40.37 4.55085 40.4838C4.59797 40.5975 4.66702 40.7009 4.75408 40.7879C4.84113 40.875 4.94448 40.944 5.05823 40.9911C5.17197 41.0383 5.29388 41.0625 5.41699 41.0625H7.29199C7.41511 41.0625 7.53702 41.0383 7.65076 40.9911C7.7645 40.944 7.86785 40.875 7.95491 40.7879C8.04196 40.7009 8.11102 40.5975 8.15813 40.4838C8.20524 40.37 8.22949 40.2481 8.22949 40.125C8.22949 40.0019 8.20524 39.88 8.15813 39.7662C8.11102 39.6525 8.04196 39.5491 7.95491 39.4621C7.86785 39.375 7.7645 39.306 7.65076 39.2589C7.53702 39.2117 7.41511 39.1875 7.29199 39.1875H5.41699Z" fill="white"/>
</svg>
