<svg width="56" height="56" viewBox="0 0 56 56" fill="none" xmlns="http://www.w3.org/2000/svg">
<path d="M54.5229 26.8476L49.8285 22.1531C48.5851 20.9097 46.5258 22.245 47.1537 23.8876L47.7912 25.5554H38.5891C38.3152 24.3642 37.8449 23.2483 37.2151 22.2423L43.7231 15.7343L44.4517 17.3644C45.1691 18.9698 47.5694 18.4579 47.5694 16.6994V10.0606C47.5694 9.1605 46.8397 8.43079 45.9396 8.43079H39.3008C37.5423 8.43079 37.0304 10.831 38.6358 11.5486L40.2659 12.2771L33.7579 18.7851C32.752 18.1553 31.636 17.685 30.4448 17.4111V8.20892L32.1127 8.84649C33.7552 9.47439 35.0904 7.41511 33.847 6.17169L29.1526 1.47736C28.5162 0.840879 27.4843 0.840879 26.8478 1.47736L22.1534 6.17169C20.9099 7.41511 22.2452 9.47439 23.8878 8.84649L25.5556 8.20892V17.411C24.3644 17.6849 23.2485 18.1552 22.2426 18.785L15.7343 12.277L17.3644 11.5485C18.9698 10.831 18.4579 8.43068 16.6994 8.43068H10.0606C9.1605 8.43068 8.43079 9.16039 8.43079 10.0605V16.6993C8.43079 18.4578 10.831 18.9697 11.5486 17.3643L12.2771 15.7342L18.7851 22.2422C18.1553 23.2481 17.685 24.3641 17.4111 25.5553H8.20892L8.84649 23.8875C9.47439 22.245 7.41511 20.9097 6.17169 22.153L1.47736 26.8475C0.840879 27.484 0.840879 28.5158 1.47736 29.1523L6.17169 33.8467C7.41511 35.0902 9.47439 33.7549 8.84649 32.1123L8.20892 30.4445H17.411C17.6849 31.6357 18.1552 32.7516 18.785 33.7575L12.277 40.2658L11.5485 38.6357C10.831 37.0303 8.43068 37.5422 8.43068 39.3007V45.9395C8.43068 46.8396 9.16039 47.5693 10.0605 47.5693H16.6993C18.4578 47.5693 18.9697 45.1691 17.3643 44.4515L15.7342 43.723L22.2422 37.215C23.2481 37.8448 24.3641 38.3151 25.5553 38.589V47.7911L23.8875 47.1535C22.245 46.5256 20.9097 48.5849 22.153 49.8283L26.8475 54.5226C27.484 55.1591 28.5158 55.1591 29.1523 54.5226L33.8466 49.8283C35.0901 48.5849 33.7548 46.5256 32.1123 47.1535L30.4445 47.7911V38.589C31.6357 38.3151 32.7516 37.8448 33.7575 37.215L40.2656 43.723L38.6355 44.4515C37.03 45.169 37.542 47.5693 39.3004 47.5693H45.9393C46.8394 47.5693 47.5691 46.8396 47.5691 45.9395V39.3007C47.5691 37.5422 45.1689 37.0303 44.4513 38.6357L43.7228 40.2658L37.2148 33.7578C37.8446 32.7519 38.3149 31.6359 38.5888 30.4447H47.7909L47.1534 32.1125C46.5255 33.755 48.5848 35.0903 49.8282 33.847L54.5225 29.1525C55.1592 28.516 55.1592 27.4841 54.5229 26.8476Z" stroke="white" stroke-width="1.8" stroke-miterlimit="10" stroke-linecap="round" stroke-linejoin="round"/>
<path d="M28.0003 33.9759C31.3007 33.9759 33.9762 31.3004 33.9762 28C33.9762 24.6997 31.3007 22.0242 28.0003 22.0242C24.6999 22.0242 22.0244 24.6997 22.0244 28C22.0244 31.3004 24.6999 33.9759 28.0003 33.9759Z" stroke="white" stroke-width="1.8" stroke-miterlimit="10" stroke-linecap="round" stroke-linejoin="round"/>
</svg>
