<svg width="52" height="52" viewBox="0 0 52 52" fill="none" xmlns="http://www.w3.org/2000/svg">
<path d="M26.5184 23.4852H21.2589C20.7957 23.4852 20.4202 23.8607 20.4202 24.3239V45.221C20.4202 45.6842 20.7957 46.0597 21.2589 46.0597H26.5184C26.9815 46.0597 27.3571 45.6842 27.3571 45.221V24.3239C27.3571 23.8606 26.9817 23.4852 26.5184 23.4852ZM25.6797 44.3823H22.0976V25.1626H25.6797V44.3823ZM16.7523 29.0055H11.4927C11.0296 29.0055 10.654 29.381 10.654 29.8442V45.221C10.654 45.6842 11.0296 46.0597 11.4927 46.0597H16.7523C17.2155 46.0597 17.591 45.6842 17.591 45.221V29.8442C17.591 29.381 17.2155 29.0055 16.7523 29.0055ZM15.9136 44.3823H12.3315V30.6829H15.9136V44.3823ZM6.98604 34.2921H1.72648C1.2633 34.2921 0.887766 34.6676 0.887766 35.1308V45.2209C0.887766 45.6841 1.2633 46.0596 1.72648 46.0596H6.98593C7.44911 46.0596 7.82464 45.6841 7.82464 45.2209V35.1308C7.82475 34.6675 7.44922 34.2921 6.98604 34.2921ZM6.14733 44.3822H2.56519V35.9695H6.14722L6.14733 44.3822ZM1.17293 30.9886C0.826016 30.9886 0.501435 30.7717 0.38087 30.4255C0.228539 29.9881 0.459604 29.51 0.897097 29.3576C13.5293 24.9584 24.6437 18.562 33.9661 10.3346L32.1235 10.4346C31.6607 10.459 31.2656 10.105 31.2405 9.64256C31.2155 9.18001 31.57 8.78477 32.0326 8.75961L36.2389 8.53127C36.49 8.51774 36.7341 8.61734 36.9036 8.80311C37.0732 8.98878 37.1505 9.24071 37.1143 9.4896L36.5073 13.6581C36.4465 14.0755 36.0881 14.376 35.6784 14.376C35.6382 14.376 35.5975 14.3732 35.5564 14.3672C35.0981 14.3004 34.7806 13.8748 34.8473 13.4164L35.1183 11.5548C25.6234 19.945 14.3069 26.4639 1.44855 30.9417C1.35745 30.9736 1.26445 30.9886 1.17293 30.9886ZM38.0579 5.31523L40.2115 7.04622L39.4866 9.71249C39.3687 10.1462 39.5275 10.5971 39.8911 10.8613C40.0802 10.9988 40.3003 11.0678 40.521 11.0678C40.7244 11.0678 40.9283 11.009 41.1086 10.891L43.4203 9.37763L45.7321 10.891C46.108 11.137 46.586 11.1255 46.9495 10.8614C47.3131 10.5972 47.4719 10.1464 47.3541 9.71249L46.6291 7.04633L48.7826 5.31544C49.133 5.03395 49.2697 4.5758 49.1308 4.14827C48.9919 3.72073 48.612 3.43033 48.1632 3.40852L45.4036 3.27391L44.423 0.690889C44.2636 0.271113 43.8702 0 43.4205 0C42.9707 0 42.5773 0.271113 42.418 0.690784L41.4374 3.27381L38.6777 3.40831C38.2287 3.43012 37.8488 3.72052 37.71 4.14806C37.571 4.5757 37.7077 5.03384 38.0579 5.31523ZM41.9144 4.93005C42.3405 4.90929 42.7136 4.63828 42.8647 4.23969L43.4204 2.77624L43.9761 4.2399C44.1276 4.63849 44.5007 4.9094 44.9263 4.93005L46.4899 5.00627L45.2699 5.98693C44.9374 6.25406 44.7948 6.69271 44.9068 7.10409L45.3175 8.61451L44.0074 7.75693C43.6505 7.52356 43.1898 7.52366 42.8331 7.75714L41.5234 8.61451L41.9341 7.10409C42.0461 6.69239 41.9035 6.25375 41.5711 5.98693L40.351 5.00627L41.9144 4.93005ZM51.1872 37.871L49.7633 37.3228C49.5473 36.5643 49.2448 35.8346 48.8602 35.1445L49.48 33.7492C49.6209 33.4321 49.5519 33.0611 49.3066 32.8157L47.1981 30.7072C47.1088 30.618 47.0028 30.5529 46.889 30.5119V14.392C46.889 13.9288 46.5135 13.5533 46.0503 13.5533H40.7907C40.3275 13.5533 39.952 13.9288 39.952 14.392V28.2891H38.3783C38.0313 28.2891 37.7202 28.5028 37.5955 28.8265L37.1231 30.0539V19.358C37.1231 18.8948 36.7476 18.5193 36.2844 18.5193H31.0249C30.5617 18.5193 30.1862 18.8948 30.1862 19.358V36.6699C30.109 36.8851 30.038 37.1025 29.9753 37.3228L28.5512 37.871C28.2273 37.9955 28.0138 38.3067 28.0138 38.6537V41.6355C28.0138 41.9825 28.2275 42.2936 28.5512 42.4182L29.9751 42.9663C30.0379 43.1869 30.1089 43.4047 30.1862 43.62V45.2209C30.1862 45.5036 30.3263 45.7529 30.5405 45.9049L30.2584 46.54C30.1175 46.857 30.1865 47.2282 30.4318 47.4735L32.5404 49.582C32.7859 49.8274 33.157 49.8963 33.4739 49.7555L34.8698 49.1355C35.5598 49.5199 36.2891 49.8224 37.0473 50.0383L37.5955 51.4626C37.7201 51.7864 38.0313 52 38.3783 52H41.3602C41.7072 52 42.0183 51.7863 42.1429 51.4626L42.6909 50.0387C43.4494 49.8227 44.1792 49.5202 44.8692 49.1356L46.2646 49.7553C46.5816 49.8962 46.9526 49.8273 47.1981 49.5819L49.3066 47.4734C49.5519 47.228 49.6209 46.857 49.48 46.5399L48.86 45.144C49.2444 44.454 49.5469 43.7246 49.7627 42.9664L51.1871 42.4182C51.5109 42.2937 51.7245 41.9825 51.7245 41.6355V38.6537C51.7246 38.3068 51.5109 37.9956 51.1872 37.871ZM45.2115 15.2307V31.0014L44.8685 31.1537C44.1785 30.7693 43.4492 30.4668 42.691 30.251L42.1428 28.8265C42.0518 28.59 41.8608 28.4133 41.6294 28.3347V15.2307H45.2115ZM35.4456 20.1967V30.857C35.2509 30.9499 35.0587 31.0485 34.8696 31.1538L33.4737 30.5338C33.1567 30.393 32.7855 30.462 32.5402 30.7073L31.8635 31.3841V20.1967H35.4456ZM50.0472 41.0597L48.759 41.5555C48.5009 41.6548 48.3084 41.875 48.2443 42.1441C48.0335 43.0301 47.6838 43.8737 47.2048 44.6516C47.0598 44.8872 47.0402 45.179 47.1525 45.4317L47.7132 46.6944L46.4191 47.9885L45.1569 47.428C44.9041 47.3157 44.6123 47.3352 44.3767 47.4804C43.5989 47.9594 42.7551 48.3092 41.8687 48.5201C41.5996 48.584 41.3794 48.7766 41.28 49.0347L40.7842 50.3227H38.954L38.4583 49.0344C38.359 48.7763 38.1388 48.5838 37.8697 48.5198C36.9837 48.3089 36.1401 47.9592 35.3623 47.4802C35.1267 47.3353 34.8349 47.3156 34.5821 47.4278L33.3194 47.9887L32.0251 46.6945L32.5857 45.4325C32.698 45.1796 32.6784 44.8877 32.5334 44.6523C32.0544 43.8745 31.7045 43.0306 31.4936 42.144C31.4295 41.875 31.2371 41.6547 30.9789 41.5554L29.6912 41.0597V39.2296L30.9793 38.7338C31.2374 38.6345 31.4299 38.4142 31.4939 38.1452C31.7047 37.2591 32.0546 36.4154 32.5336 35.6375C32.6786 35.4019 32.6982 35.11 32.5859 34.8573L32.0252 33.5948L33.3194 32.3006L34.5822 32.8614C34.835 32.9736 35.1268 32.9541 35.3623 32.809C36.1402 32.33 36.9839 31.9803 37.8698 31.7694C38.1388 31.7054 38.3591 31.5129 38.4584 31.2548L38.9543 29.9665H40.7844L41.2803 31.2548C41.3796 31.5129 41.5998 31.7054 41.8689 31.7694C42.7548 31.9803 43.5985 32.33 44.3764 32.809C44.6119 32.954 44.9038 32.9735 45.1565 32.8614L46.4193 32.3006L47.7134 33.5947L47.1529 34.8568C47.0406 35.1097 47.0602 35.4016 47.2053 35.6372C47.6843 36.415 48.0341 37.2589 48.2451 38.1453C48.309 38.4143 48.5016 38.6346 48.7597 38.7339L50.0475 39.2297V41.0597H50.0472ZM39.8691 34.1056C36.5391 34.1056 33.8299 36.8147 33.8299 40.1447C33.8299 43.4746 36.5391 46.1837 39.8691 46.1837C43.1991 46.1837 45.9082 43.4746 45.9082 40.1447C45.9082 36.8147 43.1991 34.1056 39.8691 34.1056ZM39.8691 44.5063C37.4641 44.5063 35.5074 42.5497 35.5074 40.1447C35.5074 37.7397 37.464 35.783 39.8691 35.783C42.2742 35.783 44.2308 37.7396 44.2308 40.1447C44.2308 42.5496 42.2742 44.5063 39.8691 44.5063Z" fill="white"/>
</svg>
